<?xml version="1.0" encoding="utf-8"?>
<!-- Generator: Adobe Illustrator 25.2.3, SVG Export Plug-In . SVG Version: 6.00 Build 0)  -->
<svg version="1.1" xmlns="http://www.w3.org/2000/svg" xmlns:xlink="http://www.w3.org/1999/xlink" x="0px" y="0px"
	 viewBox="0 0 25 20" style="enable-background:new 0 0 25 20;" xml:space="preserve">
<g id="Global">
</g>
<g id="Main">
</g>
<g id="Reference">
</g>
<g id="Labels">
</g>
<g id="Other">
	<path id="Background" style="fill:#999999;" d="M16.12,16.75H8.88c-3.11,0-5.63-2.52-5.63-5.63V3.25h18.5v7.88
		C21.75,14.23,19.23,16.75,16.12,16.75z"/>
	<path style="fill:#0E6CB0;" d="M16.12,17.5H8.88c-3.52,0-6.38-2.86-6.38-6.38V3.25L3.25,2.5h18.5l0.75,0.75v7.88
		C22.5,14.64,19.64,17.5,16.12,17.5z M4,4v7.13C4,13.81,6.19,16,8.88,16h7.23c2.69,0,4.88-2.19,4.88-4.88V4H4z"/>
	<path style="fill:#0E6CB0;" d="M15.15,11.77c0,0.45-0.19,1.82-2.15,2.03v-3.74h2.03v-1H13V8.1c0.59-0.21,1.02-0.77,1.02-1.43
		c0-0.84-0.68-1.52-1.52-1.52s-1.52,0.68-1.52,1.52c0,0.66,0.43,1.22,1.02,1.43v0.95H9.97v1H12v3.74c-1.96-0.21-2.15-1.58-2.15-2.03
		h-1c0,1.42,0.96,3.07,3.65,3.07s3.65-1.65,3.65-3.07H15.15z M12.5,6.15c0.29,0,0.52,0.23,0.52,0.52c0,0.29-0.23,0.52-0.52,0.52
		s-0.52-0.23-0.52-0.52C11.98,6.38,12.21,6.15,12.5,6.15z"/>
</g>
</svg>
